<?xml version="1.0" encoding="utf-8"?>
<!-- Generator: Adobe Illustrator 24.0.3, SVG Export Plug-In . SVG Version: 6.00 Build 0)  -->
<svg version="1.1" xmlns="http://www.w3.org/2000/svg" xmlns:xlink="http://www.w3.org/1999/xlink" x="0px" y="0px"
	 viewBox="0 0 1480 1453" style="enable-background:new 0 0 1480 1453;" xml:space="preserve">
<style type="text/css">
	.st0{fill:#F37021;}
	.st1{fill:#595A5A;}
	.st2{fill:#EFEFEF;}
	.st3{fill:#BBBDBF;}
	.st4{fill:#231F20;}
	.st5{fill:#6B6B6B;}
</style>
<g id="Layer_2">
	<circle class="st0" cx="740" cy="728" r="703"/>
</g>
<g id="Layer_1">
	<g>
		<g>
			<path class="st1" d="M561.83,211.05c0-55.52-42.65-100.53-95.26-100.53s-73.7,43.59-73.7,99.11s30,75.87,82.61,75.87
				c6.14,0,3.78,4.1,9.59,2.93l-0.55,197.92c0,20.82,15.99,37.69,35.72,37.69h5.24c19.73,0,35.72-16.88,35.72-37.69v-263.7h-0.02
				C561.6,218.84,561.83,214.97,561.83,211.05z"/>
			<path class="st2" d="M562.27,202.15c0-52.61-42.65-95.26-95.26-95.26s-95.26,42.65-95.26,95.26s42.65,95.26,95.26,95.26
				c6.14,0,12.14-0.6,17.96-1.71v167.33c0,19.73,15.99,35.72,35.72,35.72h5.24c19.73,0,35.72-15.99,35.72-35.72
				C561.63,463.03,562.27,205.87,562.27,202.15z"/>
			<path class="st3" d="M535.57,497.43c-2.69-116.92-2.33-196.24,1.68-240.85c0.54-6.05,1.21-26.87-6.63-29.75
				c-5.8-2.13-12.59,6.94-24.36,16.1c0,0-22.37,17.4-50.19,22.8c-33.04,6.41-63.91-15.45-76.43-25.55
				c5.12,12.16,14.26,27.58,30.43,39.1c4.98,3.55,21.9,15.61,45.57,17.83c11.83,1.11,17.87-0.93,23.38,3.96
				c6.36,5.65,5.62,14.89,5.15,32.1c-0.49,17.96,0.03,35.93,0,53.89c-0.01,6.01,0.1,20.25,0.4,48.74
				c0.12,12.2,0.25,22.46,0.34,29.96c0.31,2.91,2.04,16.15,13.51,25.54C514.34,504.31,534.29,497.86,535.57,497.43z"/>
			<ellipse class="st4" cx="399.84" cy="199.51" rx="17.96" ry="44.27"/>
			<circle class="st4" cx="465.36" cy="209.63" r="10.12"/>
			
				<ellipse transform="matrix(0.7456 -0.6664 0.6664 0.7456 35.2744 388.733)" class="st4" cx="526.72" cy="148.17" rx="6.87" ry="22.56"/>
			<path class="st5" d="M555.56,489.46c0,0,1.08,17.39-16.37,25.13v-9.81C539.19,504.79,547.72,501.18,555.56,489.46z"/>
			<path class="st3" d="M535.57,497.43c-2.69-116.92-2.33-196.24,1.68-240.85c0.54-6.05,1.21-26.87-6.63-29.75
				c-5.8-2.13-12.59,6.94-24.36,16.1c0,0-22.37,17.4-50.19,22.8c-33.04,6.41-63.91-15.45-76.43-25.55
				c5.12,12.16,14.26,27.58,30.43,39.1c4.98,3.55,21.9,15.61,45.57,17.83c11.83,1.11,17.87-0.93,23.38,3.96
				c6.36,5.65,5.62,14.89,5.15,32.1c-0.49,17.96,0.03,35.93,0,53.89c-0.01,6.01,0.1,20.25,0.4,48.74
				c0.12,12.2,0.25,22.46,0.34,29.96c0.31,2.91,2.04,16.15,13.51,25.54C514.34,504.31,534.29,497.86,535.57,497.43z"/>
		</g>
		<g>
			<g>
				<path class="st1" d="M216.17,385.42c0-55.52,42.65-100.53,95.26-100.53s73.7,43.59,73.7,99.11c0,55.52-30,75.87-82.61,75.87
					c-6.14,0-3.78,4.1-9.59,2.93l0.55,197.92c0,20.82-15.99,37.69-35.72,37.69h-5.24c-19.73,0-35.72-16.88-35.72-37.69v-263.7h0.02
					C216.4,393.21,216.17,389.34,216.17,385.42z"/>
				<path class="st2" d="M215.73,376.05c0-52.61,42.65-95.26,95.26-95.26s95.26,42.65,95.26,95.26s-42.65,95.26-95.26,95.26
					c-6.14,0-12.14-0.6-17.96-1.71v167.33c0,19.73-15.99,35.72-35.72,35.72h-5.24c-19.73,0-35.72-15.99-35.72-35.72
					C216.37,636.93,215.73,379.77,215.73,376.05z"/>
				<ellipse class="st4" cx="378.16" cy="373.88" rx="17.96" ry="44.27"/>
				<circle class="st4" cx="312.64" cy="384" r="10.12"/>
				
					<ellipse transform="matrix(0.6664 -0.7456 0.7456 0.6664 -156.6549 294.9262)" class="st4" cx="251.28" cy="322.54" rx="22.56" ry="6.87"/>
			</g>
			<path class="st3" d="M376.62,445.92c-9.05,6.73-21.7,13.68-37.13,14.25c-22.59,0.84-42.51-12.33-46.82-6.19
				c-0.66,0.93-0.15,1.18,0.32,16.32c0.14,4.52,0.09,6.37,0.1,8.32c0,1.34-0.01,2.68-0.07,4.02c-0.05,1.24-0.04,4.05,0.05,4.05
				c0.09,0,0.11-2.87,0.64-6.75c0.41-3,0.61-4.49,0.95-5.13c1.96-3.76,9.39-2.63,20.77-2.99c4.05-0.13,11.76-0.41,19.82-2.13
				c3.14-0.67,10.37-2.43,18.65-6.58C364.29,457.88,371.72,451.23,376.62,445.92z"/>
		</g>
	</g>
	<g>
		<g>
			<path class="st1" d="M1247.83,208.05c0-55.52-42.65-100.53-95.26-100.53s-73.7,43.59-73.7,99.11s30,75.87,82.61,75.87
				c6.14,0,3.78,4.1,9.59,2.93l-0.55,197.92c0,20.82,15.99,37.69,35.72,37.69h5.24c19.73,0,35.72-16.88,35.72-37.69v-263.7h-0.02
				C1247.6,215.84,1247.83,211.97,1247.83,208.05z"/>
			<path class="st2" d="M1248.27,199.15c0-52.61-42.65-95.26-95.26-95.26c-52.61,0-95.26,42.65-95.26,95.26s42.65,95.26,95.26,95.26
				c6.14,0,12.14-0.6,17.96-1.71v167.33c0,19.73,15.99,35.72,35.72,35.72h5.24c19.73,0,35.72-15.99,35.72-35.72
				C1247.63,460.03,1248.27,202.87,1248.27,199.15z"/>
			<path class="st3" d="M1221.57,494.43c-2.69-116.92-2.33-196.24,1.68-240.85c0.54-6.05,1.21-26.87-6.63-29.75
				c-5.8-2.13-12.59,6.94-24.36,16.1c0,0-22.37,17.4-50.19,22.8c-33.04,6.41-63.91-15.45-76.43-25.55
				c5.12,12.16,14.26,27.58,30.43,39.1c4.98,3.55,21.9,15.61,45.57,17.83c11.83,1.11,17.87-0.93,23.38,3.96
				c6.36,5.65,5.62,14.89,5.15,32.1c-0.49,17.96,0.03,35.93,0,53.89c-0.01,6.01,0.1,20.25,0.4,48.74
				c0.12,12.2,0.25,22.46,0.34,29.96c0.31,2.91,2.04,16.15,13.51,25.54C1200.34,501.31,1220.29,494.86,1221.57,494.43z"/>
			<ellipse class="st4" cx="1085.84" cy="196.51" rx="17.96" ry="44.27"/>
			<circle class="st4" cx="1151.36" cy="206.63" r="10.12"/>
			
				<ellipse transform="matrix(0.7456 -0.6664 0.6664 0.7456 211.8249 845.1524)" class="st4" cx="1212.72" cy="145.17" rx="6.87" ry="22.56"/>
			<path class="st5" d="M1241.56,486.46c0,0,1.08,17.39-16.37,25.13v-9.81C1225.19,501.79,1233.72,498.18,1241.56,486.46z"/>
			<path class="st3" d="M1221.57,494.43c-2.69-116.92-2.33-196.24,1.68-240.85c0.54-6.05,1.21-26.87-6.63-29.75
				c-5.8-2.13-12.59,6.94-24.36,16.1c0,0-22.37,17.4-50.19,22.8c-33.04,6.41-63.91-15.45-76.43-25.55
				c5.12,12.16,14.26,27.58,30.43,39.1c4.98,3.55,21.9,15.61,45.57,17.83c11.83,1.11,17.87-0.93,23.38,3.96
				c6.36,5.65,5.62,14.89,5.15,32.1c-0.49,17.96,0.03,35.93,0,53.89c-0.01,6.01,0.1,20.25,0.4,48.74
				c0.12,12.2,0.25,22.46,0.34,29.96c0.31,2.91,2.04,16.15,13.51,25.54C1200.34,501.31,1220.29,494.86,1221.57,494.43z"/>
		</g>
		<g>
			<g>
				<path class="st1" d="M902.17,382.42c0-55.52,42.65-100.53,95.26-100.53s73.7,43.59,73.7,99.11c0,55.52-30,75.87-82.61,75.87
					c-6.14,0-3.78,4.1-9.59,2.93l0.55,197.92c0,20.82-15.99,37.69-35.72,37.69h-5.24c-19.73,0-35.72-16.88-35.72-37.69v-263.7h0.02
					C902.4,390.21,902.17,386.34,902.17,382.42z"/>
				<path class="st2" d="M901.73,373.05c0-52.61,42.65-95.26,95.26-95.26s95.26,42.65,95.26,95.26s-42.65,95.26-95.26,95.26
					c-6.14,0-12.14-0.6-17.96-1.71v167.33c0,19.73-15.99,35.72-35.72,35.72h-5.24c-19.73,0-35.72-15.99-35.72-35.72
					C902.37,633.93,901.73,376.77,901.73,373.05z"/>
				<ellipse class="st4" cx="1064.16" cy="370.88" rx="17.96" ry="44.27"/>
				<circle class="st4" cx="998.64" cy="381" r="10.12"/>
				
					<ellipse transform="matrix(0.6664 -0.7456 0.7456 0.6664 74.399 805.3745)" class="st4" cx="937.28" cy="319.54" rx="22.56" ry="6.87"/>
			</g>
			<path class="st3" d="M1062.62,442.92c-9.05,6.73-21.7,13.68-37.13,14.25c-22.59,0.84-42.51-12.33-46.82-6.19
				c-0.66,0.93-0.15,1.18,0.32,16.32c0.14,4.52,0.09,6.37,0.1,8.32c0,1.34-0.01,2.68-0.07,4.02c-0.05,1.24-0.04,4.05,0.05,4.05
				c0.09,0,0.11-2.87,0.64-6.75c0.41-3,0.61-4.49,0.95-5.13c1.96-3.76,9.39-2.63,20.77-2.99c4.05-0.13,11.76-0.41,19.82-2.13
				c3.14-0.67,10.37-2.43,18.65-6.58C1050.29,454.88,1057.72,448.23,1062.62,442.92z"/>
		</g>
	</g>
	<g>
		<g>
			<path class="st1" d="M561.83,883.05c0-55.52-42.65-100.53-95.26-100.53s-73.7,43.59-73.7,99.11c0,55.52,30,75.87,82.61,75.87
				c6.14,0,3.78,4.1,9.59,2.93l-0.55,197.92c0,20.82,15.99,37.69,35.72,37.69h5.24c19.73,0,35.72-16.88,35.72-37.69v-263.7h-0.02
				C561.6,890.84,561.83,886.97,561.83,883.05z"/>
			<path class="st2" d="M562.27,874.15c0-52.61-42.65-95.26-95.26-95.26s-95.26,42.65-95.26,95.26c0,52.61,42.65,95.26,95.26,95.26
				c6.14,0,12.14-0.6,17.96-1.71v167.33c0,19.73,15.99,35.72,35.72,35.72h5.24c19.73,0,35.72-15.99,35.72-35.72
				C561.63,1135.03,562.27,877.87,562.27,874.15z"/>
			<path class="st3" d="M535.57,1169.43c-2.69-116.92-2.33-196.24,1.68-240.85c0.54-6.05,1.21-26.87-6.63-29.75
				c-5.8-2.13-12.59,6.94-24.36,16.1c0,0-22.37,17.4-50.19,22.8c-33.04,6.41-63.91-15.45-76.43-25.55
				c5.12,12.16,14.26,27.58,30.43,39.1c4.98,3.55,21.9,15.61,45.57,17.83c11.83,1.11,17.87-0.93,23.38,3.96
				c6.36,5.65,5.62,14.89,5.15,32.1c-0.49,17.96,0.03,35.93,0,53.89c-0.01,6.01,0.1,20.25,0.4,48.74
				c0.12,12.2,0.25,22.46,0.34,29.96c0.31,2.91,2.04,16.15,13.51,25.54C514.34,1176.31,534.29,1169.86,535.57,1169.43z"/>
			<ellipse class="st4" cx="399.84" cy="871.51" rx="17.96" ry="44.27"/>
			<circle class="st4" cx="465.36" cy="881.63" r="10.12"/>
			
				<ellipse transform="matrix(0.7456 -0.6664 0.6664 0.7456 -412.5781 559.7219)" class="st4" cx="526.72" cy="820.17" rx="6.87" ry="22.56"/>
			<path class="st5" d="M555.56,1161.46c0,0,1.08,17.39-16.37,25.13v-9.81C539.19,1176.79,547.72,1173.18,555.56,1161.46z"/>
			<path class="st3" d="M535.57,1169.43c-2.69-116.92-2.33-196.24,1.68-240.85c0.54-6.05,1.21-26.87-6.63-29.75
				c-5.8-2.13-12.59,6.94-24.36,16.1c0,0-22.37,17.4-50.19,22.8c-33.04,6.41-63.91-15.45-76.43-25.55
				c5.12,12.16,14.26,27.58,30.43,39.1c4.98,3.55,21.9,15.61,45.57,17.83c11.83,1.11,17.87-0.93,23.38,3.96
				c6.36,5.65,5.62,14.89,5.15,32.1c-0.49,17.96,0.03,35.93,0,53.89c-0.01,6.01,0.1,20.25,0.4,48.74
				c0.12,12.2,0.25,22.46,0.34,29.96c0.31,2.91,2.04,16.15,13.51,25.54C514.34,1176.31,534.29,1169.86,535.57,1169.43z"/>
		</g>
		<g>
			<g>
				<path class="st1" d="M216.17,1057.42c0-55.52,42.65-100.53,95.26-100.53s73.7,43.59,73.7,99.11c0,55.52-30,75.87-82.61,75.87
					c-6.14,0-3.78,4.1-9.59,2.93l0.55,197.92c0,20.82-15.99,37.69-35.72,37.69h-5.24c-19.73,0-35.72-16.88-35.72-37.69v-263.7h0.02
					C216.4,1065.21,216.17,1061.34,216.17,1057.42z"/>
				<path class="st2" d="M215.73,1048.05c0-52.61,42.65-95.26,95.26-95.26s95.26,42.65,95.26,95.26c0,52.61-42.65,95.26-95.26,95.26
					c-6.14,0-12.14-0.6-17.96-1.71v167.33c0,19.73-15.99,35.72-35.72,35.72h-5.24c-19.73,0-35.72-15.99-35.72-35.72
					C216.37,1308.93,215.73,1051.77,215.73,1048.05z"/>
				<ellipse class="st4" cx="378.16" cy="1045.88" rx="17.96" ry="44.27"/>
				<circle class="st4" cx="312.64" cy="1056" r="10.12"/>
				
					<ellipse transform="matrix(0.6664 -0.7456 0.7456 0.6664 -657.666 519.0737)" class="st4" cx="251.28" cy="994.54" rx="22.56" ry="6.87"/>
			</g>
			<path class="st3" d="M376.62,1117.92c-9.05,6.73-21.7,13.68-37.13,14.25c-22.59,0.84-42.51-12.33-46.82-6.19
				c-0.66,0.93-0.15,1.18,0.32,16.32c0.14,4.52,0.09,6.37,0.1,8.32c0,1.34-0.01,2.68-0.07,4.02c-0.05,1.24-0.04,4.05,0.05,4.05
				c0.09,0,0.11-2.87,0.64-6.75c0.41-3,0.61-4.49,0.95-5.13c1.96-3.76,9.39-2.63,20.77-2.99c4.05-0.13,11.76-0.41,19.82-2.13
				c3.14-0.67,10.37-2.43,18.65-6.58C364.29,1129.88,371.72,1123.23,376.62,1117.92z"/>
		</g>
	</g>
	<g>
		<g>
			<path class="st1" d="M1247.83,913.05c0-55.52-42.65-100.53-95.26-100.53s-73.7,43.59-73.7,99.11c0,55.52,30,75.87,82.61,75.87
				c6.14,0,3.78,4.1,9.59,2.93l-0.55,197.92c0,20.82,15.99,37.69,35.72,37.69h5.24c19.73,0,35.72-16.88,35.72-37.69v-263.7h-0.02
				C1247.6,920.84,1247.83,916.97,1247.83,913.05z"/>
			<path class="st2" d="M1248.27,904.15c0-52.61-42.65-95.26-95.26-95.26c-52.61,0-95.26,42.65-95.26,95.26
				c0,52.61,42.65,95.26,95.26,95.26c6.14,0,12.14-0.6,17.96-1.71v167.33c0,19.73,15.99,35.72,35.72,35.72h5.24
				c19.73,0,35.72-15.99,35.72-35.72C1247.63,1165.03,1248.27,907.87,1248.27,904.15z"/>
			<path class="st3" d="M1221.57,1199.43c-2.69-116.92-2.33-196.24,1.68-240.85c0.54-6.05,1.21-26.87-6.63-29.75
				c-5.8-2.13-12.59,6.94-24.36,16.1c0,0-22.37,17.4-50.19,22.8c-33.04,6.41-63.91-15.45-76.43-25.55
				c5.12,12.16,14.26,27.58,30.43,39.1c4.98,3.55,21.9,15.61,45.57,17.83c11.83,1.11,17.87-0.93,23.38,3.96
				c6.36,5.65,5.62,14.89,5.15,32.1c-0.49,17.96,0.03,35.93,0,53.89c-0.01,6.01,0.1,20.25,0.4,48.74
				c0.12,12.2,0.25,22.46,0.34,29.96c0.31,2.91,2.04,16.15,13.51,25.54C1200.34,1206.31,1220.29,1199.86,1221.57,1199.43z"/>
			<ellipse class="st4" cx="1085.84" cy="901.51" rx="17.96" ry="44.27"/>
			<circle class="st4" cx="1151.36" cy="911.63" r="10.12"/>
			
				<ellipse transform="matrix(0.7456 -0.6664 0.6664 0.7456 -258.0204 1024.5381)" class="st4" cx="1212.72" cy="850.17" rx="6.87" ry="22.56"/>
			<path class="st5" d="M1241.56,1191.46c0,0,1.08,17.39-16.37,25.13v-9.81C1225.19,1206.79,1233.72,1203.18,1241.56,1191.46z"/>
			<path class="st3" d="M1221.57,1199.43c-2.69-116.92-2.33-196.24,1.68-240.85c0.54-6.05,1.21-26.87-6.63-29.75
				c-5.8-2.13-12.59,6.94-24.36,16.1c0,0-22.37,17.4-50.19,22.8c-33.04,6.41-63.91-15.45-76.43-25.55
				c5.12,12.16,14.26,27.58,30.43,39.1c4.98,3.55,21.9,15.61,45.57,17.83c11.83,1.11,17.87-0.93,23.38,3.96
				c6.36,5.65,5.62,14.89,5.15,32.1c-0.49,17.96,0.03,35.93,0,53.89c-0.01,6.01,0.1,20.25,0.4,48.74
				c0.12,12.2,0.25,22.46,0.34,29.96c0.31,2.91,2.04,16.15,13.51,25.54C1200.34,1206.31,1220.29,1199.86,1221.57,1199.43z"/>
		</g>
		<g>
			<g>
				<path class="st1" d="M902.17,1087.42c0-55.52,42.65-100.53,95.26-100.53s73.7,43.59,73.7,99.11s-30,75.87-82.61,75.87
					c-6.14,0-3.78,4.1-9.59,2.93l0.55,197.92c0,20.82-15.99,37.69-35.72,37.69h-5.24c-19.73,0-35.72-16.88-35.72-37.69v-263.7h0.02
					C902.4,1095.21,902.17,1091.34,902.17,1087.42z"/>
				<path class="st2" d="M901.73,1078.05c0-52.61,42.65-95.26,95.26-95.26s95.26,42.65,95.26,95.26s-42.65,95.26-95.26,95.26
					c-6.14,0-12.14-0.6-17.96-1.71v167.33c0,19.73-15.99,35.72-35.72,35.72h-5.24c-19.73,0-35.72-15.99-35.72-35.72
					C902.37,1338.93,901.73,1081.77,901.73,1078.05z"/>
				<ellipse class="st4" cx="1064.16" cy="1075.88" rx="17.96" ry="44.27"/>
				<circle class="st4" cx="998.64" cy="1086" r="10.12"/>
				
					<ellipse transform="matrix(0.6664 -0.7456 0.7456 0.6664 -451.2154 1040.5292)" class="st4" cx="937.28" cy="1024.54" rx="22.56" ry="6.87"/>
			</g>
			<path class="st3" d="M1062.62,1147.92c-9.05,6.73-21.7,13.68-37.13,14.25c-22.59,0.84-42.51-12.33-46.82-6.19
				c-0.66,0.93-0.15,1.18,0.32,16.32c0.14,4.52,0.09,6.37,0.1,8.32c0,1.34-0.01,2.68-0.07,4.02c-0.05,1.24-0.04,4.05,0.05,4.05
				c0.09,0,0.11-2.87,0.64-6.75c0.41-3,0.61-4.49,0.95-5.13c1.96-3.76,9.39-2.63,20.77-2.99c4.05-0.13,11.76-0.41,19.82-2.13
				c3.14-0.67,10.37-2.43,18.65-6.58C1050.29,1159.88,1057.72,1153.23,1062.62,1147.92z"/>
		</g>
	</g>
</g>
</svg>
