<svg width="314" height="300" viewBox="0 0 314 300" fill="none" xmlns="http://www.w3.org/2000/svg">
<path fill-rule="evenodd" clip-rule="evenodd" d="M312.957 155.025L307.96 154.854C308.016 153.243 308.043 151.625 308.043 150C308.043 148.375 308.016 146.757 307.96 145.146L312.957 144.974C313.015 146.643 313.043 148.318 313.043 150C313.043 151.682 313.015 153.357 312.957 155.025ZM312.268 134.975L307.295 135.491C306.959 132.26 306.513 129.06 305.96 125.896L310.885 125.035C311.459 128.313 311.921 131.628 312.268 134.975ZM308.814 115.22L303.961 116.422C303.182 113.279 302.297 110.175 301.308 107.114L306.066 105.577C307.09 108.748 308.008 111.963 308.814 115.22ZM302.651 96.1424L298.012 98.0056C296.806 95.0035 295.499 92.0491 294.094 89.1463L298.595 86.9685C300.049 89.9739 301.403 93.0332 302.651 96.1424ZM293.921 78.0943L289.579 80.5737C287.976 77.7662 286.278 75.0146 284.49 72.3228L288.655 69.5562C290.505 72.3411 292.261 75.1885 293.921 78.0943ZM282.828 61.3909L278.857 64.4293C276.893 61.8626 274.843 59.3597 272.71 56.9245L276.472 53.6305C278.676 56.1482 280.797 58.7363 282.828 61.3909ZM269.62 46.305C267.259 43.9415 264.819 41.6518 262.304 39.44L259.002 43.1951C261.437 45.3357 263.798 47.5513 266.082 49.838L269.62 46.305ZM254.561 33.0635L251.508 37.0232C248.95 35.0509 246.323 33.1563 243.632 31.3434L246.425 27.1965C249.205 29.0689 251.918 31.0259 254.561 33.0635ZM237.928 21.8587L235.405 26.175C232.618 24.5455 229.772 22.9997 226.87 21.5413L229.115 17.0738C232.111 18.5797 235.051 20.1759 237.928 21.8587ZM220.015 12.8547L218.056 17.455C215.085 16.1902 212.064 15.014 208.997 13.9302L210.662 9.21576C213.829 10.3346 216.948 11.5488 220.015 12.8547ZM201.108 6.17337L199.74 10.9828C196.639 10.1012 193.496 9.312 190.315 8.61859L191.379 3.73328C194.663 4.44888 197.907 5.26338 201.108 6.17337ZM181.513 1.90164L180.753 6.84355C177.568 6.35378 174.35 5.95895 171.101 5.66225L171.556 0.682973C174.907 0.989013 178.227 1.39631 181.513 1.90164ZM161.548 0.0758845L161.397 5.0736C159.778 5.02466 158.153 5 156.522 5C154.89 5 153.265 5.02466 151.646 5.0736L151.495 0.0758859C153.164 0.0254217 154.84 0 156.522 0C158.204 0 159.879 0.0254212 161.548 0.0758845ZM141.488 0.682975L141.943 5.66225C138.694 5.95896 135.475 6.35378 132.29 6.84355L131.53 1.90164C134.817 1.39631 138.137 0.989016 141.488 0.682975ZM121.664 3.73329L122.729 8.61859C119.547 9.312 116.404 10.1012 113.303 10.9828L111.936 6.17337C115.137 5.26338 118.381 4.44888 121.664 3.73329ZM102.381 9.21576L104.047 13.9302C100.979 15.014 97.958 16.1902 94.9876 17.455L93.0287 12.8547C96.0955 11.5488 99.2142 10.3346 102.381 9.21576ZM83.9283 17.0738L86.1737 21.5413C83.2719 22.9997 80.4256 24.5455 77.6388 26.175L75.115 21.8587C77.993 20.1759 80.9321 18.5797 83.9283 17.0738ZM66.6184 27.1965L69.4117 31.3434C66.7203 33.1563 64.0935 35.0509 61.5352 37.0232L58.4824 33.0634C61.1252 31.0259 63.8385 29.0689 66.6184 27.1965ZM50.7399 39.44L54.0413 43.1951C51.6066 45.3356 49.2454 47.5512 46.9619 49.838L43.4239 46.3049C45.7841 43.9414 48.2241 41.6518 50.7399 39.44ZM36.5718 53.6304L40.3334 56.9245C38.2008 59.3597 36.1506 61.8626 34.1866 64.4293L30.2157 61.3909C32.2469 58.7363 34.367 56.1482 36.5718 53.6304ZM24.3889 69.5562L28.5537 72.3228C26.7656 75.0146 25.0679 77.7662 23.4647 80.5737L19.1228 78.0943C20.7821 75.1885 22.5389 72.3411 24.3889 69.5562ZM14.4483 86.9685L18.9491 89.1463C17.5445 92.0491 16.2374 95.0035 15.0319 98.0056L10.392 96.1424C11.6405 93.0332 12.994 89.9739 14.4483 86.9685ZM6.97777 105.577L11.7356 107.114C10.7468 110.175 9.86106 113.279 9.08232 116.422L4.22904 115.22C5.03583 111.963 5.95342 108.748 6.97777 105.577ZM2.15803 125.035L7.08334 125.896C6.53016 129.06 6.08404 132.26 5.74872 135.491L0.775433 134.975C1.12277 131.628 1.58492 128.313 2.15803 125.035ZM0.0861913 144.975C0.0288802 146.643 0 148.318 0 150C0 151.682 0.0288806 153.357 0.0861926 155.026L5.08325 154.854C5.0279 153.243 5 151.625 5 150C5 148.375 5.0279 146.757 5.08324 145.146L0.0861913 144.975ZM0.775436 165.025L5.74873 164.509C6.08405 167.74 6.53016 170.94 7.08334 174.104L2.15803 174.965C1.58492 171.687 1.12278 168.372 0.775436 165.025ZM4.22905 184.78L9.08233 183.578C9.86106 186.721 10.7468 189.825 11.7356 192.886L6.97778 194.423C5.95343 191.252 5.03584 188.037 4.22905 184.78ZM10.392 203.858L15.0319 201.994C16.2374 204.997 17.5445 207.951 18.9491 210.854L14.4483 213.032C12.994 210.026 11.6405 206.967 10.392 203.858ZM19.1228 221.906L23.4647 219.426C25.0679 222.234 26.7656 224.985 28.5537 227.677L24.3889 230.444C22.5389 227.659 20.7821 224.811 19.1228 221.906ZM30.2157 238.609L34.1866 235.571C36.1506 238.137 38.2008 240.64 40.3334 243.075L36.5718 246.37C34.367 243.852 32.2469 241.264 30.2157 238.609ZM43.4239 253.695C45.784 256.059 48.2241 258.348 50.7399 260.56L54.0413 256.805C51.6065 254.664 49.2454 252.449 46.9619 250.162L43.4239 253.695ZM58.4823 266.937L61.5352 262.977C64.0935 264.949 66.7203 266.844 69.4117 268.657L66.6183 272.804C63.8385 270.931 61.1252 268.974 58.4823 266.937ZM75.115 278.141L77.6387 273.825C80.4256 275.454 83.2718 277 86.1736 278.459L83.9283 282.926C80.9321 281.42 77.993 279.824 75.115 278.141ZM93.0287 287.145L94.9876 282.545C97.958 283.81 100.979 284.986 104.047 286.07L102.381 290.784C99.2142 289.665 96.0955 288.451 93.0287 287.145ZM111.936 293.827C115.137 294.737 118.381 295.551 121.664 296.267L122.729 291.381C119.547 290.688 116.404 289.899 113.303 289.017L111.936 293.827ZM131.53 298.098L132.29 293.156C135.475 293.646 138.694 294.041 141.943 294.338L141.488 299.317C138.137 299.011 134.817 298.604 131.53 298.098ZM151.495 299.924L151.646 294.926C153.265 294.975 154.89 295 156.522 295C158.153 295 159.779 294.975 161.397 294.926L161.548 299.924C159.879 299.975 158.204 300 156.522 300C154.84 300 153.164 299.975 151.495 299.924ZM171.556 299.317L171.101 294.338C174.35 294.041 177.568 293.646 180.753 293.156L181.513 298.098C178.227 298.604 174.907 299.011 171.556 299.317ZM191.379 296.267L190.315 291.381C193.496 290.688 196.639 289.899 199.74 289.017L201.108 293.827C197.907 294.737 194.663 295.551 191.379 296.267ZM210.662 290.784C213.829 289.665 216.948 288.451 220.015 287.145L218.056 282.545C215.085 283.81 212.064 284.986 208.997 286.07L210.662 290.784ZM229.115 282.926L226.87 278.459C229.772 277 232.618 275.454 235.405 273.825L237.928 278.141C235.05 279.824 232.111 281.42 229.115 282.926ZM246.425 272.804L243.632 268.657C246.323 266.844 248.95 264.949 251.508 262.977L254.561 266.937C251.918 268.974 249.205 270.931 246.425 272.804ZM262.304 260.56L259.002 256.805C261.437 254.664 263.798 252.449 266.082 250.162L269.62 253.695C267.259 256.059 264.819 258.348 262.304 260.56ZM276.472 246.37L272.71 243.076C274.843 240.64 276.893 238.137 278.857 235.571L282.828 238.609C280.797 241.264 278.676 243.852 276.472 246.37ZM288.655 230.444L284.49 227.677C286.278 224.985 287.976 222.234 289.579 219.426L293.921 221.906C292.261 224.811 290.505 227.659 288.655 230.444ZM298.595 213.032L294.094 210.854C295.499 207.951 296.806 204.997 298.012 201.994L302.651 203.858C301.403 206.967 300.049 210.026 298.595 213.032ZM306.066 194.423L301.308 192.886C302.297 189.825 303.182 186.721 303.961 183.578L308.814 184.78C308.008 188.037 307.09 191.252 306.066 194.423ZM310.885 174.965L305.96 174.104C306.513 170.94 306.959 167.74 307.295 164.509L312.268 165.025C311.921 168.372 311.459 171.687 310.885 174.965Z" fill="#F37021"/>
</svg>
