<svg width="25" height="25" viewBox="0 0 25 25" fill="none" xmlns="http://www.w3.org/2000/svg">
<path fill-rule="evenodd" clip-rule="evenodd" d="M12.5 25C19.4036 25 25 19.4036 25 12.5C25 5.59644 19.4036 0 12.5 0C5.59644 0 0 5.59644 0 12.5C0 19.4036 5.59644 25 12.5 25ZM19.5167 10.1938C19.3497 6.85254 16.2301 4.47889 13.0068 5.0986L13.0051 5.09893C11.3888 5.41531 10.2017 6.30327 9.34246 7.62314C8.37257 7.30099 7.48103 7.26733 6.71655 7.62998C5.87576 8.02883 5.31546 8.84632 4.96762 9.93616C4.9649 9.93913 4.96151 9.94267 4.95737 9.94672C4.94541 9.9584 4.93082 9.9708 4.91505 9.98245C4.90072 9.99303 4.88815 10.001 4.87912 10.0061C3.07726 10.949 2.17113 12.7731 2.60902 14.7379C2.85952 15.8592 3.52127 16.7868 4.44593 17.3683L5.24666 17.8719V15.7177L5.06794 15.5559C4.67943 15.2042 4.4043 14.7085 4.30829 14.1033C4.14695 13.09 4.81012 11.9558 5.90604 11.5614L5.91662 11.5573C6.01165 11.5208 6.09708 11.4908 6.19531 11.4564C6.24382 11.4394 6.29595 11.4211 6.35339 11.4006L6.72551 11.2676L6.70646 10.8627C6.68658 10.44 6.7514 10.1144 6.88378 9.86912C7.01132 9.63283 7.2257 9.42561 7.59297 9.27579C7.95678 9.1286 8.25114 9.14279 8.52318 9.24671C8.81492 9.35815 9.11347 9.58592 9.44168 9.92506L9.99396 10.4957L10.2992 9.75407C10.7959 8.54731 11.4315 7.72025 12.2085 7.26728C12.9746 6.8207 13.9539 6.6937 15.2348 7.04078L15.2367 7.0413C16.1056 7.27314 16.7643 7.87409 17.2542 8.69806L17.2553 8.6998C17.7194 9.47382 17.7948 10.3568 17.6861 11.3579L17.6245 11.9243L18.1772 11.9588C18.3555 11.97 18.4889 11.9811 18.6266 11.9926L18.6378 11.9935L18.6491 11.9939C19.85 12.0409 20.7252 12.9846 20.7072 14.1472C20.6894 15.2325 19.8075 16.1343 18.6116 16.1343H12.9336V18H13.4599C15.1867 18 16.9132 17.9886 18.6491 17.9772L18.684 17.977C20.6438 17.9637 22.2523 16.4781 22.4689 14.5665C22.7083 12.6004 21.5465 10.8465 19.631 10.3306C19.5795 10.3165 19.5456 10.3042 19.5239 10.2949C19.5211 10.2753 19.5185 10.2463 19.5172 10.2047L19.5167 10.1938Z" fill="white"/>
</svg>
