<svg width="323" height="306" viewBox="0 0 323 306" fill="none" xmlns="http://www.w3.org/2000/svg">
<path fill-rule="evenodd" clip-rule="evenodd" d="M0.5 0.5H7.94583V5.5H5.5V8H0.5V0.5ZM17.8376 0.5H27.7293V5.5H17.8376V0.5ZM37.621 0.5H47.5127V5.5H37.621V0.5ZM57.4045 0.5H67.2962V5.5H57.4045V0.5ZM77.1879 0.5H87.0797V5.5H77.1879V0.5ZM96.9714 0.5H106.863V5.5H96.9714V0.5ZM116.755 0.5H126.647V5.5H116.755V0.5ZM136.538 0.5H146.43V5.5H136.538V0.5ZM156.322 0.5H166.214V5.5H156.322V0.5ZM176.105 0.5H185.997V5.5H176.105V0.5ZM195.889 0.5H205.781V5.5H195.889V0.5ZM215.672 0.5H225.564V5.5H215.672V0.5ZM235.456 0.5H245.347V5.5H235.456V0.5ZM255.239 0.5H265.131V5.5H255.239V0.5ZM275.023 0.5H284.914V5.5H275.023V0.5ZM294.806 0.5H304.698V5.5H294.806V0.5ZM314.59 0.5H322.035V8H317.035V5.5H314.59V0.5ZM0.5 28V18H5.5V28H0.5ZM322.035 18V28H317.035V18H322.035ZM0.5 48V38H5.5V48H0.5ZM322.035 38V48H317.035V38H322.035ZM0.5 68V58H5.5V68H0.5ZM322.035 58V68H317.035V58H322.035ZM0.5 88V78H5.5V88H0.5ZM322.035 78V88H317.035V78H322.035ZM0.5 108V98H5.5V108H0.5ZM322.035 98V108H317.035V98H322.035ZM0.5 128V118H5.5V128H0.5ZM322.035 118V128H317.035V118H322.035ZM0.5 148V138H5.5V148H0.5ZM322.035 138V148H317.035V138H322.035ZM0.5 168V158H5.5V168H0.5ZM322.035 158V168H317.035V158H322.035ZM0.5 188V178H5.5V188H0.5ZM322.035 178V188H317.035V178H322.035ZM0.5 208V198H5.5V208H0.5ZM322.035 198V208H317.035V198H322.035ZM0.5 228V218H5.5V228H0.5ZM322.035 218V228H317.035V218H322.035ZM322.035 238V248H317.035V238H322.035ZM0.5 248V238H5.5V248H0.5ZM0.5 268V258H5.5V268H0.5ZM322.035 258V268H317.035V258H322.035ZM0.5 288V278H5.5V288H0.5ZM322.035 278V288H317.035V278H322.035ZM0.5 298H5.5V300.5H7.94587V305.5H0.5V298ZM317.035 300.5V298H322.035V305.5H314.59V300.5H317.035ZM27.7293 305.5H17.8376V300.5H27.7293V305.5ZM47.5128 305.5H37.6211V300.5H47.5128V305.5ZM67.2963 305.5H57.4045V300.5H67.2963V305.5ZM87.0797 305.5H77.188V300.5H87.0797V305.5ZM106.863 305.5H96.9714V300.5H106.863V305.5ZM126.647 305.5H116.755V300.5H126.647V305.5ZM146.43 305.5H136.538V300.5H146.43V305.5ZM166.214 305.5H156.322V300.5H166.214V305.5ZM185.997 305.5H176.105V300.5H185.997V305.5ZM205.781 305.5H195.889V300.5H205.781V305.5ZM225.564 305.5H215.672V300.5H225.564V305.5ZM245.347 305.5H235.456V300.5H245.347V305.5ZM265.131 305.5H255.239V300.5H265.131V305.5ZM284.914 305.5H275.023V300.5H284.914V305.5ZM304.698 305.5H294.806V300.5H304.698V305.5Z" fill="#F37021"/>
</svg>
