<svg width="25" height="25" viewBox="0 0 25 25" fill="none" xmlns="http://www.w3.org/2000/svg">
<path fill-rule="evenodd" clip-rule="evenodd" d="M12.5 25C19.4036 25 25 19.4036 25 12.5C25 5.59644 19.4036 0 12.5 0C5.59644 0 0 5.59644 0 12.5C0 19.4036 5.59644 25 12.5 25ZM7.89043 15.9768C8.41923 17.2646 9.29315 18.5357 10.5848 19.7533C8.49168 19.2021 6.75638 17.7688 5.80047 15.875H7.84934C7.86279 15.9089 7.87649 15.9429 7.89043 15.9768ZM7.40719 14.375H5.23628C5.08204 13.7757 5 13.1474 5 12.5C5 11.9198 5.06589 11.3549 5.19061 10.8125H7.46777C7.45671 10.8622 7.44603 10.912 7.43575 10.9619C7.21244 12.0468 7.17566 13.1979 7.40719 14.375ZM12 19.0119C10.8003 17.9654 9.99659 16.9066 9.48906 15.875H12V19.0119ZM8.9425 14.375H12V10.8125H9.0117C8.97191 10.9618 8.93622 11.1124 8.90495 11.2644C8.70014 12.2593 8.68423 13.3068 8.9425 14.375ZM13.5 18.5533V15.875H15.5109C15.0774 16.7561 14.4278 17.6571 13.5 18.5533ZM13.5 14.375H16.0575C16.3158 13.3068 16.2999 12.2593 16.0951 11.2644C16.0638 11.1124 16.0281 10.9618 15.9883 10.8125H13.5V14.375ZM17.1096 15.9768C17.1235 15.9429 17.1372 15.9089 17.1507 15.875H19.1995C18.2436 17.7688 16.5083 19.2021 14.4152 19.7533C15.7068 18.5357 16.5808 17.2646 17.1096 15.9768ZM17.5928 14.375H19.7637C19.918 13.7757 20 13.1474 20 12.5C20 11.9198 19.9341 11.3549 19.8094 10.8125H17.5322C17.5433 10.8622 17.554 10.912 17.5642 10.9619C17.7876 12.0468 17.8243 13.1979 17.5928 14.375ZM12 9.3125H9.56259C10.1875 7.97977 11.0947 6.82815 12 5.99138V9.3125ZM15.4374 9.3125H13.5V6.48639C14.2308 7.25971 14.9279 8.22591 15.4374 9.3125ZM19.2909 9.3125H17.0703C16.4341 7.69707 15.4268 6.29312 14.3771 5.23683C16.556 5.79831 18.3514 7.31436 19.2909 9.3125ZM7.92966 9.3125H5.70909C6.6486 7.31436 8.44403 5.79831 10.6229 5.23683C9.57323 6.29312 8.56587 7.69707 7.92966 9.3125ZM12.5 21.5C17.4706 21.5 21.5 17.4706 21.5 12.5C21.5 7.52944 17.4706 3.5 12.5 3.5C7.52944 3.5 3.5 7.52944 3.5 12.5C3.5 17.4706 7.52944 21.5 12.5 21.5Z" fill="white"/>
</svg>
