<svg width="112" height="26" viewBox="0 0 112 26" fill="none" xmlns="http://www.w3.org/2000/svg">
<path d="M0 18.8789H1.00195C1.35352 20.6016 2.00977 21.8203 2.9707 22.5352C3.93164 23.2383 4.91602 23.5898 5.92383 23.5898C6.84961 23.5898 7.5293 23.3848 7.96289 22.9746C8.39648 22.5527 8.61328 22.002 8.61328 21.3223C8.61328 20.6777 8.37891 20.127 7.91016 19.6699C7.65234 19.4238 7.23633 19.1602 6.66211 18.8789L3.99023 17.5781C2.58398 16.8867 1.57617 16.1367 0.966797 15.3281C0.345703 14.5195 0.0351562 13.5645 0.0351562 12.4629C0.0351562 11.0684 0.521484 9.86719 1.49414 8.85938C2.4668 7.83984 3.82617 7.33008 5.57227 7.33008C6.33398 7.33008 7.14258 7.45898 7.99805 7.7168C8.85352 7.96289 9.38672 8.08594 9.59766 8.08594C9.89062 8.08594 10.0957 8.02734 10.2129 7.91016C10.3418 7.78125 10.4473 7.60547 10.5293 7.38281H11.3203V12.5859H10.4062C10.0664 11.3672 9.50977 10.3887 8.73633 9.65039C7.96289 8.91211 7.06055 8.54297 6.0293 8.54297C5.23242 8.54297 4.63477 8.76562 4.23633 9.21094C3.84961 9.65625 3.65625 10.1367 3.65625 10.6523C3.65625 11.0742 3.83203 11.4961 4.18359 11.918C4.52344 12.3516 5.16797 12.7969 6.11719 13.2539L8.08594 14.2031C9.30469 14.7891 10.1953 15.3574 10.7578 15.9082C11.6953 16.8457 12.1641 18 12.1641 19.3711C12.1641 20.707 11.6777 21.9551 10.7051 23.1152C9.74414 24.2637 8.29688 24.8379 6.36328 24.8379C5.88281 24.8379 5.39648 24.7852 4.9043 24.6797C4.42383 24.5859 3.82617 24.416 3.11133 24.1699L2.49609 23.959C2.27344 23.877 2.13281 23.8301 2.07422 23.8184C2.02734 23.8066 1.96289 23.8008 1.88086 23.8008C1.68164 23.8008 1.50586 23.8828 1.35352 24.0469C1.21289 24.1992 1.04883 24.4629 0.861328 24.8379H0V18.8789Z" fill="white"/>
<path d="M13.9043 16.084C13.9043 13.5762 14.6719 11.4844 16.207 9.80859C17.7539 8.13281 19.6934 7.29492 22.0254 7.29492C24.4043 7.29492 26.3496 8.15039 27.8613 9.86133C29.3848 11.5723 30.1465 13.6465 30.1465 16.084C30.1465 18.4863 29.3965 20.5547 27.8965 22.2891C26.3965 24.0117 24.4395 24.873 22.0254 24.873C19.6816 24.873 17.7422 24.0352 16.207 22.3594C14.6719 20.6719 13.9043 18.5801 13.9043 16.084ZM19.1953 16.084C19.1953 18.6035 19.3242 20.3672 19.582 21.375C19.9922 22.9336 20.8066 23.7129 22.0254 23.7129C23.1855 23.7129 23.9473 23.1152 24.3105 21.9199C24.6738 20.7246 24.8555 18.7793 24.8555 16.084C24.8555 13.4004 24.6621 11.4609 24.2754 10.2656C23.9004 9.05859 23.1562 8.45508 22.043 8.45508C20.8242 8.45508 20.0098 9.23438 19.5996 10.793C19.3301 11.8359 19.1953 13.5996 19.1953 16.084Z" fill="white"/>
<path d="M31.6934 23.4668C32.3262 23.3145 32.7715 23.1152 33.0293 22.8691C33.2988 22.6113 33.4336 22.084 33.4336 21.2871V2.95312C33.4336 2.19141 33.3105 1.69336 33.0645 1.45898C32.8184 1.22461 32.3613 1.03125 31.6934 0.878906V0H38.5137V21.2871C38.5137 22.084 38.6426 22.6055 38.9004 22.8516C39.1582 23.0977 39.6152 23.3027 40.2715 23.4668V24.3281H31.6934V23.4668Z" fill="white"/>
<path d="M49.0254 22.2715C49.6113 22.2715 50.1562 22.0957 50.6602 21.7441C50.9414 21.5332 51.2754 21.2051 51.6621 20.7598V15.5039C50.7012 15.7383 49.8574 16.1074 49.1309 16.6113C47.9004 17.4668 47.2852 18.5566 47.2852 19.8809C47.2852 20.666 47.4609 21.2637 47.8125 21.6738C48.1758 22.0723 48.5801 22.2715 49.0254 22.2715ZM42.0469 20.9707C42.0469 19.3535 42.8262 18.0703 44.3848 17.1211C45.9434 16.1719 48.3867 15.2168 51.7148 14.2559V11.6367C51.7148 10.5703 51.4863 9.78516 51.0293 9.28125C50.584 8.76562 49.7871 8.50781 48.6387 8.50781C47.9941 8.50781 47.4609 8.63086 47.0391 8.87695C46.6289 9.11133 46.4238 9.41016 46.4238 9.77344C46.4238 9.91406 46.4473 10.0312 46.4941 10.125C46.541 10.2188 46.6113 10.3184 46.7051 10.4238L46.916 10.6699C47.0801 10.8691 47.209 11.0918 47.3027 11.3379C47.4082 11.5723 47.4609 11.8242 47.4609 12.0938C47.4609 12.7734 47.2324 13.3008 46.7754 13.6758C46.3301 14.0391 45.8086 14.2207 45.2109 14.2207C44.5195 14.2207 43.9277 14.0156 43.4355 13.6055C42.9551 13.1953 42.7148 12.6035 42.7148 11.8301C42.7148 10.4473 43.3652 9.35156 44.666 8.54297C45.9668 7.73438 47.5664 7.33008 49.4648 7.33008C51.5039 7.33008 53.209 7.72266 54.5801 8.50781C55.9395 9.30469 56.6191 10.7695 56.6191 12.9023V21.6211C56.6191 21.8789 56.6836 22.1016 56.8125 22.2891C56.9531 22.4648 57.1055 22.5527 57.2695 22.5527C57.4102 22.5527 57.5332 22.5293 57.6387 22.4824C57.7559 22.4238 57.9316 22.2773 58.166 22.043L58.7109 22.7988C58.0078 23.6191 57.2285 24.1934 56.373 24.5215C55.834 24.7324 55.2656 24.8379 54.668 24.8379C53.6016 24.8379 52.8223 24.5273 52.3301 23.9062C52.0488 23.5547 51.8438 23.0332 51.7148 22.3418C50.7188 23.3379 49.5938 24.041 48.3398 24.4512C47.5781 24.709 46.8281 24.8379 46.0898 24.8379C45.1055 24.8379 44.1855 24.5273 43.3301 23.9062C42.4746 23.2734 42.0469 22.2949 42.0469 20.9707Z" fill="white"/>
<path d="M68.4141 7.29492C69.9258 7.29492 71.2324 7.66406 72.334 8.40234C73.4473 9.14062 74.0039 10.0898 74.0039 11.25C74.0039 11.8711 73.7812 12.4102 73.3359 12.8672C72.9023 13.3242 72.3457 13.5527 71.666 13.5527C71.209 13.5527 70.8105 13.4473 70.4707 13.2363C69.8262 12.8613 69.5039 12.1816 69.5039 11.1973C69.5039 11.0918 69.5098 10.9395 69.5215 10.7402C69.5332 10.5293 69.5391 10.3066 69.5391 10.0723C69.5391 9.43945 69.3926 9.00586 69.0996 8.77148C68.7949 8.53711 68.4492 8.41992 68.0625 8.41992C66.9492 8.41992 66.1582 9.03516 65.6895 10.2656C65.2207 11.4844 64.9863 12.8848 64.9863 14.4668C64.9863 16.7168 65.4316 18.6035 66.3223 20.127C67.2129 21.6504 68.4141 22.4121 69.9258 22.4121C70.875 22.4121 71.6836 22.2012 72.3516 21.7793C72.75 21.5332 73.2422 21.082 73.8281 20.4258L74.4961 21.041C73.3242 22.6699 71.9531 23.7891 70.3828 24.3984C69.5508 24.7148 68.666 24.873 67.7285 24.873C65.4199 24.873 63.5332 24.0469 62.0684 22.3945C60.6035 20.7422 59.8711 18.7266 59.8711 16.3477C59.8711 13.8398 60.6445 11.707 62.1914 9.94922C63.75 8.17969 65.8242 7.29492 68.4141 7.29492Z" fill="white"/>
<path d="M75.9375 16.0664C75.9375 13.3008 76.6699 11.1562 78.1348 9.63281C79.6113 8.09766 81.3867 7.33008 83.4609 7.33008C84.6445 7.33008 85.7578 7.64062 86.8008 8.26172C87.8438 8.88281 88.6465 9.74414 89.209 10.8457C89.6309 11.6777 89.9238 12.7559 90.0879 14.0801C90.1699 14.7012 90.2109 15.1758 90.2109 15.5039H81.0352C81.1172 16.9453 81.3516 18.1934 81.7383 19.248C82.4414 21.2285 83.6777 22.2188 85.4473 22.2188C86.291 22.2188 87.0879 21.9551 87.8379 21.4277C88.2949 21.1113 88.8633 20.5781 89.543 19.8281L90.3691 20.3379C89.2559 22.166 87.9668 23.4375 86.502 24.1523C85.5527 24.6094 84.4629 24.8379 83.2324 24.8379C81.4629 24.8379 79.8047 24.1406 78.2578 22.7461C76.7109 21.3516 75.9375 19.125 75.9375 16.0664ZM85.7812 14.168C85.7578 12.0469 85.5938 10.5645 85.2891 9.7207C84.9844 8.87695 84.375 8.45508 83.4609 8.45508C82.5234 8.45508 81.8789 8.94141 81.5273 9.91406C81.1875 10.8867 80.9941 12.3047 80.9473 14.168H85.7812Z" fill="white"/>
<path d="M97.4922 18.7031C97.4922 16.8281 98.1432 15.2396 99.4453 13.9375C100.773 12.6094 102.375 11.9453 104.25 11.9453C106.125 11.9453 107.714 12.6094 109.016 13.9375C110.344 15.2396 111.008 16.8281 111.008 18.7031C111.008 20.5781 110.344 22.1797 109.016 23.5078C107.714 24.8099 106.125 25.4609 104.25 25.4609C102.375 25.4609 100.773 24.8099 99.4453 23.5078C98.1432 22.1797 97.4922 20.5781 97.4922 18.7031Z" fill="white"/>
</svg>
