<svg width="157" height="166" viewBox="0 0 157 166" fill="none" xmlns="http://www.w3.org/2000/svg">
<path fill-rule="evenodd" clip-rule="evenodd" d="M156.5 0.5H149.281V5.5H151.5V8H156.5V0.5ZM139.844 0.5H130.406V5.5H139.844V0.5ZM120.969 0.5H111.531V5.5H120.969V0.5ZM102.094 0.5H92.6562V5.5H102.094V0.5ZM83.2188 0.5H73.7812V5.5H83.2188V0.5ZM64.3438 0.5H54.9062V5.5H64.3438V0.5ZM45.4688 0.5H36.0312V5.5H45.4688V0.5ZM26.5938 0.5H17.1562V5.5H26.5938V0.5ZM7.71875 0.5H0.5V8H5.5V5.5H7.71875V0.5ZM156.5 28V18H151.5V28H156.5ZM0.5 18V28H5.5V18H0.5ZM156.5 48V38H151.5V48H156.5ZM0.5 38V48H5.5V38H0.5ZM156.5 68V58H151.5V68H156.5ZM0.5 58V68H5.5V58H0.5ZM156.5 88V78H151.5V88H156.5ZM0.5 78V88H5.5V78H0.5ZM156.5 108V98H151.5V108H156.5ZM0.5 98V108H5.5V98H0.5ZM156.5 128V118H151.5V128H156.5ZM0.5 118V128H5.5V118H0.5ZM156.5 148V138H151.5V148H156.5ZM0.5 138V148H5.5V138H0.5ZM156.5 158H151.5V160.5H149.281V165.5H156.5V158ZM5.5 160.5V158H0.5V165.5H7.71875V160.5H5.5ZM130.406 165.5H139.844V160.5H130.406V165.5ZM111.531 165.5H120.969V160.5H111.531V165.5ZM92.6562 165.5H102.094V160.5H92.6562V165.5ZM73.7812 165.5H83.2188V160.5H73.7812V165.5ZM54.9062 165.5H64.3438V160.5H54.9062V165.5ZM36.0312 165.5H45.4688V160.5H36.0312V165.5ZM17.1562 165.5H26.5938V160.5H17.1562V165.5Z" fill="#F37021"/>
</svg>
