<svg width="330" height="285" viewBox="0 0 330 285" fill="none" xmlns="http://www.w3.org/2000/svg">
<path fill-rule="evenodd" clip-rule="evenodd" d="M162.113 280L163.241 278.047L165 279.063L166.759 278.047L167.887 280L165 285L162.113 280ZM172.713 271.641L168.383 269.141L173.525 260.234L177.855 262.734L172.713 271.641ZM182.997 253.828L178.667 251.328L183.809 242.422L188.139 244.922L182.997 253.828ZM193.281 236.016L188.951 233.516L194.093 224.609L198.423 227.109L193.281 236.016ZM203.565 218.203L199.235 215.703L204.377 206.797L208.707 209.297L203.565 218.203ZM213.849 200.391L209.519 197.891L214.661 188.984L218.991 191.484L213.849 200.391ZM224.133 182.578L219.803 180.078L224.945 171.172L229.275 173.672L224.133 182.578ZM234.417 164.766L230.087 162.266L235.229 153.359L239.559 155.859L234.417 164.766ZM244.701 146.953L240.371 144.453L245.513 135.547L249.843 138.047L244.701 146.953ZM254.985 129.141L250.655 126.641L255.797 117.734L260.128 120.234L254.985 129.141ZM265.27 111.328L260.939 108.828L266.081 99.9219L270.412 102.422L265.27 111.328ZM275.554 93.5156L271.223 91.0156L276.365 82.1094L280.696 84.6094L275.554 93.5156ZM285.838 75.7031L281.507 73.2031L286.65 64.2969L290.98 66.7969L285.838 75.7031ZM296.122 57.8906L291.792 55.3906L296.934 46.4844L301.264 48.9844L296.122 57.8906ZM306.406 40.0781L302.076 37.5781L307.218 28.6719L311.548 31.1719L306.406 40.0781ZM316.69 22.2656L312.36 19.7656L317.502 10.8594L321.832 13.3594L316.69 22.2656ZM326.658 5H324.403V2.96881L322.644 1.95312L323.771 0H329.545L326.658 5ZM314.119 0V5H303.835V0H314.119ZM293.551 0V5H283.267V0H293.551ZM272.983 0V5H262.699V0H272.983ZM252.414 0V5H242.13V0H252.414ZM231.846 0V5H221.562V0H231.846ZM211.278 0V5H200.994V0H211.278ZM190.71 0V5H180.426V0H190.71ZM170.142 0V5H159.858V0H170.142ZM149.574 0V5H139.29V0H149.574ZM129.006 0V5H118.722V0H129.006ZM108.438 0V5H98.1537V0H108.438ZM87.8696 0V5H77.5855V0H87.8696ZM67.3015 0V5H57.0174V0H67.3015ZM46.7334 0V5H36.4493V0H46.7334ZM26.1653 0V5H15.8812V0H26.1653ZM6.22868 0L7.35626 1.95303L5.59719 2.96863V5H3.34192L0.45517 0H6.22868ZM8.16817 13.3593L12.4983 10.8593L17.6403 19.7656L13.3102 22.2656L8.16817 13.3593ZM18.4522 31.1718L22.7823 28.6718L27.9244 37.5781L23.5943 40.0781L18.4522 31.1718ZM28.7363 48.9843L33.0664 46.4843L38.2084 55.3906L33.8783 57.8906L28.7363 48.9843ZM39.0203 66.7968L43.3505 64.2968L48.4925 73.2031L44.1624 75.7031L39.0203 66.7968ZM49.3044 84.6093L53.6345 82.1093L58.7766 91.0156L54.4464 93.5156L49.3044 84.6093ZM59.5885 102.422L63.9186 99.9219L69.0606 108.828L64.7305 111.328L59.5885 102.422ZM69.8725 120.234L74.2026 117.734L79.3447 126.641L75.0145 129.141L69.8725 120.234ZM80.1566 138.047L84.4867 135.547L89.6287 144.453L85.2986 146.953L80.1566 138.047ZM90.4406 155.859L94.7708 153.359L99.9128 162.266L95.5827 164.766L90.4406 155.859ZM100.725 173.672L105.055 171.172L110.197 180.078L105.867 182.578L100.725 173.672ZM111.009 191.484L115.339 188.984L120.481 197.891L116.151 200.391L111.009 191.484ZM121.293 209.297L125.623 206.797L130.765 215.703L126.435 218.203L121.293 209.297ZM131.577 227.109L135.907 224.609L141.049 233.516L136.719 236.016L131.577 227.109ZM141.861 244.922L146.191 242.422L151.333 251.328L147.003 253.828L141.861 244.922ZM152.145 262.734L156.475 260.234L161.617 269.141L157.287 271.641L152.145 262.734Z" fill="#F37021"/>
</svg>
