<svg width="25" height="25" viewBox="0 0 25 25" fill="none" xmlns="http://www.w3.org/2000/svg">
<path fill-rule="evenodd" clip-rule="evenodd" d="M12.5 25C19.4036 25 25 19.4036 25 12.5C25 5.59644 19.4036 0 12.5 0C5.59644 0 0 5.59644 0 12.5C0 19.4036 5.59644 25 12.5 25ZM16.4483 16.5C16.3929 16.5 16.3378 16.4988 16.283 16.4964C14.2897 16.4097 12.695 14.7615 12.6559 12.7265C12.6554 12.701 12.6552 12.6756 12.6552 12.65C12.6552 10.5237 14.3534 8.8 16.4483 8.8C18.5431 8.8 20.2414 10.5237 20.2414 12.65C20.2414 14.7763 18.5431 16.5 16.4483 16.5ZM12.411 16.081C12.2569 16.4941 12.0278 16.8947 11.7185 17.2516C11.6967 17.2767 11.6745 17.3016 11.6519 17.3263C11.5645 17.4219 11.4715 17.5135 11.3731 17.6007C10.6844 18.2105 9.72919 18.6 8.51724 18.6C7.07629 18.6 6.01856 18.097 5.32718 17.3188C4.64982 16.5563 4.37931 15.5921 4.37931 14.75V7.89C4.37931 7.61938 4.59545 7.4 4.86207 7.4H5.27586C5.54248 7.4 5.75862 7.61938 5.75862 7.89V14.75C5.75862 15.3085 5.94092 15.919 6.35153 16.3812C6.74753 16.827 7.4133 17.2 8.51724 17.2C9.54674 17.2 10.2208 16.8332 10.6412 16.3737C10.8591 16.1355 11.0182 15.8621 11.1226 15.5811C11.1302 15.5606 11.1376 15.54 11.1446 15.5194L11.1486 15.5078C11.2344 15.2527 11.2759 14.9933 11.2759 14.75V13.14C11.2759 13.1008 11.2804 13.0627 11.2889 13.0262L11.2885 13.0206C11.2801 12.8982 11.2759 12.7746 11.2759 12.65C11.2759 9.75051 13.5916 7.4 16.4483 7.4C19.3049 7.4 21.6207 9.75051 21.6207 12.65C21.6207 15.5495 19.3049 17.9 16.4483 17.9C15.3652 17.9 14.3599 17.5621 13.5291 16.9846C13.1233 16.7025 12.7591 16.3632 12.4478 15.9781C12.436 16.0125 12.4238 16.0468 12.411 16.081ZM12.6627 18.2789C12.7 18.2381 12.7366 18.1968 12.7723 18.1552C13.8201 18.8771 15.0858 19.3 16.4483 19.3C20.0667 19.3 23 16.3227 23 12.65C23 8.97731 20.0667 6 16.4483 6C12.8299 6 9.89655 8.97731 9.89655 12.65C9.89655 12.7573 9.89907 12.864 9.90405 12.9703C9.89907 13.0264 9.89655 13.083 9.89655 13.14V14.75C9.89655 14.9565 9.81164 15.223 9.63043 15.4211C9.48905 15.5756 9.19051 15.8 8.51724 15.8C7.75157 15.8 7.47725 15.5578 7.37588 15.4437C7.23085 15.2804 7.13793 15.0228 7.13793 14.75V7.89C7.13793 6.84618 6.30425 6 5.27586 6H4.86207C3.83368 6 3 6.84618 3 7.89V14.75C3 15.8757 3.35871 17.1936 4.30284 18.2563C5.29071 19.3683 6.74116 20 8.51724 20C10.257 20 11.6829 19.35 12.6627 18.2789ZM18.8621 12.65C18.8621 14.0031 17.7814 15.1 16.4483 15.1C15.1152 15.1 14.0345 14.0031 14.0345 12.65C14.0345 11.2969 15.1152 10.2 16.4483 10.2C17.7814 10.2 18.8621 11.2969 18.8621 12.65Z" fill="white"/>
</svg>
